<svg version="1.1" id="Layer_1" xmlns="http://www.w3.org/2000/svg" xmlns:xlink="http://www.w3.org/1999/xlink" x="0px" y="0px"
	 width="100%" viewBox="0 0 496 496" enable-background="new 0 0 496 496" xml:space="preserve">
<path fill="#000000" opacity="1.000000" stroke="none" 
	d="
M176.125336,242.662338 
	C177.787048,240.509262 175.993896,239.445114 175.138779,238.150986 
	C174.154816,236.661850 172.415604,235.620056 172.430618,233.526108 
	C173.733902,231.974930 175.654572,231.998352 177.377838,231.468414 
	C181.530991,230.191208 182.043701,228.518402 179.263290,225.056152 
	C174.978699,219.720917 170.468506,214.532898 169.374268,207.426193 
	C167.448578,194.919220 166.095367,182.354523 166.787659,169.686340 
	C167.124908,163.514999 169.959320,161.928238 175.765945,163.856186 
	C190.700668,168.814850 203.972641,176.585510 215.339096,187.459564 
	C218.052811,190.055710 220.192520,190.365402 223.612473,188.585785 
	C230.119247,185.199905 236.855682,182.845825 244.660080,184.434219 
	C249.929062,185.506592 254.178970,180.985199 259.574982,179.521301 
	C261.187469,185.208191 266.551178,185.085617 270.899719,186.684143 
	C272.461670,187.258301 274.138153,187.653366 275.544159,188.494766 
	C279.954193,191.133835 283.165863,190.054840 286.950348,186.621277 
	C295.719635,178.665146 305.354034,171.781555 316.078552,166.564667 
	C319.558014,164.872116 323.136078,163.667099 327.037018,163.459824 
	C331.594879,163.217651 334.155518,165.513229 334.216248,169.856522 
	C334.404846,183.343201 333.722168,196.794434 331.030396,210.055161 
	C330.252350,213.888153 327.819122,216.936081 325.507416,220.021881 
	C318.913788,228.823563 319.413330,233.371109 327.564697,240.537903 
	C328.044983,240.960175 328.448608,241.469666 328.725159,241.764847 
	C328.774658,242.229996 328.871277,242.467590 328.798126,242.545258 
	C321.399261,250.399765 330.525635,251.757401 333.845428,255.388016 
	C335.567291,257.271088 334.870514,258.686340 332.975403,259.823029 
	C329.395721,261.970154 328.923920,264.938812 329.862671,268.841339 
	C331.590179,276.022858 329.656952,282.344910 324.277771,287.514221 
	C322.611481,289.115509 321.001282,290.906281 318.425201,289.451721 
	C316.230988,293.746490 314.434875,297.924408 309.932678,299.714478 
	C307.867065,298.579468 309.201721,296.425354 307.833557,294.847687 
	C305.113800,295.491821 303.295074,297.737366 301.315369,299.580139 
	C298.905975,301.822845 297.289398,301.882111 296.236298,297.312439 
	C293.209595,305.784088 287.738708,311.128906 282.111145,316.520386 
	C279.964478,314.703278 280.124451,312.595825 280.038269,310.715881 
	C279.581146,300.744232 278.991730,290.787170 277.896088,280.860260 
	C277.448669,276.806213 279.503998,274.234222 283.239899,272.859833 
	C286.206970,271.768250 289.235443,270.801819 292.100830,269.484375 
	C297.845551,266.843048 301.057861,262.452637 302.105896,256.205353 
	C299.888855,256.463898 298.718964,258.182281 297.365570,259.536530 
	C291.743896,265.161835 285.319824,267.384766 277.373596,265.223206 
	C270.185944,263.268005 267.259705,265.024139 265.433502,272.331512 
	C262.572906,283.777802 266.814240,293.654144 273.249756,302.695709 
	C278.173676,309.613586 280.903015,316.931854 280.404907,325.518463 
	C279.960052,333.186707 276.687714,338.613220 269.788208,342.256287 
	C258.497955,348.217743 247.284119,349.001526 235.202362,344.409149 
	C226.072220,340.938660 221.417816,334.814850 220.858780,325.482300 
	C220.667816,322.294373 219.600754,320.374603 217.156357,318.501648 
	C214.399658,316.389404 212.214493,313.545715 209.548126,311.295837 
	C207.860153,309.871490 206.574951,306.213104 203.281982,309.531281 
	C202.605164,310.213318 201.488403,309.035706 200.795715,308.340088 
	C199.032608,306.569550 197.336060,304.732544 195.566483,302.968689 
	C193.884399,301.292023 192.637039,298.901398 189.388702,300.162811 
	C188.610474,300.465027 187.076569,299.125916 186.020905,298.361267 
	C176.752182,291.647461 173.899261,282.565247 176.609558,271.276459 
	C174.304092,272.491516 173.945770,275.218597 171.086426,275.760803 
	C167.801193,269.931732 170.684525,263.994598 171.132645,258.209167 
	C164.951324,256.073853 164.560455,254.955978 168.777222,249.844879 
	C170.880188,247.295883 173.504211,245.176743 176.125336,242.662338 
M228.983200,299.517273 
	C230.658081,295.901947 232.588135,292.379852 233.950562,288.650421 
	C236.233078,282.402405 236.630646,276.007385 234.074997,269.676544 
	C232.440674,265.627991 229.973434,263.393158 225.198792,265.169495 
	C219.489670,267.293518 213.946899,266.121185 208.967682,263.027405 
	C205.222961,260.700653 201.879333,257.728394 198.001480,254.772339 
	C199.365784,262.418762 202.843246,267.774231 210.134674,270.168488 
	C212.496979,270.944214 214.748642,272.076508 217.132248,272.763611 
	C221.395401,273.992493 222.679916,276.739868 222.419998,281.005981 
	C221.694092,292.920746 221.239777,304.852020 220.678253,316.776794 
	C222.330612,310.719330 225.550949,305.474609 228.983200,299.517273 
M307.484863,198.254562 
	C306.863525,201.076126 308.247375,204.362183 305.566864,206.703018 
	C303.988556,208.081299 301.703461,209.083160 303.231567,211.881607 
	C304.593994,214.376602 306.956238,213.509003 309.004669,213.667206 
	C312.207794,213.914536 313.882446,212.007751 314.875397,209.296829 
	C316.643280,204.470093 318.455322,199.656052 320.068176,194.776947 
	C321.756256,189.670349 323.648621,184.585617 323.949554,178.353500 
	C316.269623,183.475647 310.971039,189.598801 307.484863,198.254562 
M180.535675,181.148392 
	C179.745895,180.636734 179.181030,179.575684 177.750565,180.165771 
	C177.651367,180.682175 177.320175,181.350571 177.443665,181.920425 
	C179.595917,191.851852 182.363480,201.580765 187.259506,210.571518 
	C187.650909,211.290298 188.126572,212.098099 188.784683,212.513184 
	C191.513565,214.234390 194.744186,214.652863 197.073761,212.554077 
	C199.571030,210.304245 197.825653,208.085876 195.452637,206.547165 
	C193.888260,205.532791 193.383575,204.121414 193.618240,202.266235 
	C194.063049,198.749603 192.484512,195.792847 190.751877,192.916183 
	C188.150009,188.596344 184.788513,184.924393 180.535675,181.148392 
M264.453735,314.150421 
	C254.034302,312.591858 236.593903,313.359619 232.350906,315.680511 
	C245.221085,319.655975 257.763031,319.535858 270.210602,314.522583 
	C268.573212,314.416107 266.935791,314.309631 264.453735,314.150421 
z"/>
</svg>