<?xml version="1.0" encoding="UTF-8"?>
<svg xmlns="http://www.w3.org/2000/svg" xmlns:xlink="http://www.w3.org/1999/xlink" width="15px" height="32px" viewBox="0 0 15 32" version="1.1">
<g id="surface1">
<path style="fill-rule:nonzero;fill:rgb(72.156864%,53.725493%,9.019608%);fill-opacity:1;stroke-width:1;stroke-linecap:butt;stroke-linejoin:miter;stroke:rgb(0%,0%,0%);stroke-opacity:1;stroke-miterlimit:4;" d="M 176.116924 242.663113 C 177.788015 240.500929 175.99583 239.445577 175.148176 238.158563 C 174.155208 236.665626 172.411461 235.610275 172.43568 233.525311 C 173.74349 231.980894 175.656769 232.006635 177.400516 231.466089 C 181.541915 230.204815 182.050508 228.531696 179.265356 225.056757 C 174.978645 219.728518 170.473965 214.52898 169.384123 207.424661 C 167.446626 194.914882 166.090378 182.353622 166.792721 169.689402 C 167.131783 163.511733 169.941153 161.915835 175.753643 163.846357 C 190.696587 168.814232 203.96844 176.587798 215.351234 187.450199 C 218.06373 190.049968 220.194976 190.358851 223.609814 188.582772 C 230.124647 185.185054 236.857448 182.842688 244.655873 184.438586 C 249.935552 185.493937 254.173826 180.989387 259.574598 179.522191 C 261.197252 185.210794 266.549587 185.082093 270.908955 186.67799 C 272.458952 187.270017 274.154262 187.656121 275.534728 188.47981 C 279.966752 191.13106 283.163622 190.049968 286.941741 186.62651 C 295.708914 178.672761 305.34796 171.774365 316.076849 166.549087 C 319.564343 164.875968 323.124493 163.666175 327.047924 163.460252 C 331.601042 163.22859 334.144006 165.519475 334.216662 169.869584 C 334.386193 183.331753 333.732288 196.793923 331.044011 210.05017 C 330.244794 213.885473 327.798704 216.922827 325.497927 220.011661 C 318.910438 228.840579 319.419031 233.37087 327.556517 240.526669 C 328.040891 240.964254 328.452609 241.47906 328.719015 241.762203 C 328.767453 242.225528 328.888546 242.482931 328.791671 242.534412 C 321.404965 250.385199 330.5112 251.775174 333.853382 255.378814 C 335.57291 257.283596 334.870568 258.699311 332.981508 259.831884 C 329.397139 261.942587 328.912765 264.928461 329.857295 268.840984 C 331.601042 276.022524 329.663545 282.354635 324.286991 287.528432 C 322.6159 289.12433 321.017465 290.90041 318.426063 289.458954 C 316.222161 293.757581 314.429976 297.927508 309.925296 299.703587 C 307.866706 298.571015 309.198735 296.434571 307.818269 294.838673 C 305.105773 295.507921 303.28937 297.721585 301.303436 299.574886 C 298.905783 301.814291 297.28313 301.891512 296.241725 297.335481 C 293.214386 305.804035 287.740958 311.132275 282.122217 316.511994 C 279.966752 314.684434 280.136283 312.599471 280.01519 310.72043 C 279.579253 300.758939 278.998004 290.797448 277.908162 280.887438 C 277.448006 276.794733 279.482378 274.246444 283.236278 272.856469 C 286.190961 271.749637 289.242518 270.797246 292.100326 269.484491 C 297.84016 266.833242 301.061248 262.457393 302.102653 256.202504 C 299.874532 256.459907 298.736252 258.184506 297.355786 259.548741 C 291.737045 265.160123 285.319087 267.399528 277.37535 265.237344 C 270.206612 263.281082 267.251929 265.031422 265.435526 272.341663 C 262.577718 283.77035 266.815993 293.65462 273.233951 302.689461 C 278.174568 309.613598 280.911282 316.923839 280.402689 325.521095 C 279.966752 333.1917 276.697226 338.59716 269.794894 342.252281 C 258.508975 348.198287 247.295712 349.021976 235.210576 344.414465 C 226.080123 340.939526 221.405912 334.813338 220.8731 325.469614 C 220.655132 322.303559 219.589508 320.373037 217.167637 318.493996 C 214.406704 316.409033 212.202802 313.551861 209.538744 311.286716 C 207.867653 309.871001 206.584061 306.19014 203.290317 309.536377 C 202.612193 310.205624 201.498132 309.021571 200.795789 308.326583 C 199.027824 306.576244 197.332514 304.722943 195.564548 302.972604 C 193.893457 301.299485 192.658303 298.905639 189.388777 300.166913 C 188.613778 300.475796 187.088 299.137301 186.022376 298.339352 C 176.74661 291.646878 173.888803 282.560557 176.601298 271.260571 C 174.300521 272.496105 173.93724 275.224575 171.079432 275.765121 C 167.785688 269.922076 170.667714 264.00181 171.12787 258.210246 C 164.952099 256.073802 164.564599 254.96697 168.778655 249.844653 C 170.861464 247.296365 173.501303 245.159921 176.116924 242.663113 M 228.986368 299.497665 C 230.657459 295.894025 232.594956 292.367606 233.951203 288.661005 C 236.251981 282.406115 236.615261 275.996784 234.072297 269.690414 C 232.425425 265.623448 229.979335 263.409784 225.18403 265.160123 C 219.492633 267.270827 213.946549 266.112514 208.981713 263.02368 C 205.227813 260.707054 201.885631 257.721181 197.986419 254.786788 C 199.366886 262.431653 202.830161 267.759892 210.144211 270.153739 C 212.493426 270.951688 214.745766 272.08426 217.143419 272.753508 C 221.405912 273.989041 222.689503 276.743252 222.423097 281.01614 C 221.696536 292.908152 221.236381 304.851645 220.67935 316.795138 C 222.326223 310.72043 225.547311 305.469412 228.986368 299.497665 M 307.479207 198.261119 C 306.873739 201.092551 308.229987 204.361567 305.565929 206.703933 C 303.991712 208.093909 301.690935 209.09778 303.240932 211.877731 C 304.59718 214.400279 306.970614 213.525109 309.004985 213.65381 C 312.201855 213.911213 313.872946 212.006432 314.890132 209.277962 C 316.658098 204.464528 318.474501 199.651095 320.072936 194.786181 C 321.768245 189.663864 323.633086 184.593027 323.947929 178.338138 C 316.270598 183.486195 310.966701 189.612383 307.479207 198.261119 M 180.548948 181.169569 C 179.74973 180.629023 179.1927 179.573671 177.763796 180.191438 C 177.642703 180.680504 177.327859 181.349751 177.448953 181.916038 C 179.5802 191.851788 182.365351 201.581616 187.257531 210.590716 C 187.64503 211.285704 188.105185 212.083653 188.783309 212.521238 C 191.520024 214.245837 194.741112 214.657682 197.066108 212.572718 C 199.560635 210.307573 197.816888 208.093909 195.443455 206.549491 C 193.893457 205.54562 193.384864 204.129905 193.627051 202.276604 C 194.062988 198.750185 192.464553 195.790052 190.745025 192.90714 C 188.153623 188.608512 184.787222 184.927651 180.548948 181.169569 M 264.466778 314.143888 C 254.052733 312.599471 236.615261 313.371679 232.352768 315.662565 C 245.212903 319.652309 257.758195 319.549348 270.206612 314.504252 C 268.583958 314.427031 266.937086 314.29833 264.466778 314.143888 Z M 264.466778 314.143888 " transform="matrix(0.161291,0,0,0.151756,-32.99194,-22.653775)"/>
</g>
</svg>
