<?xml version="1.0" encoding="UTF-8"?>
<svg xmlns="http://www.w3.org/2000/svg" xmlns:xlink="http://www.w3.org/1999/xlink" width="23px" height="50px" viewBox="0 0 17 36" version="1.1">
<g id="surface1">
<path style="fill-rule:nonzero;fill:rgb(72.156864%,53.725493%,9.019608%);fill-opacity:1;stroke-width:1;stroke-linecap:butt;stroke-linejoin:miter;stroke:rgb(0%,0%,0%);stroke-opacity:1;stroke-miterlimit:4;" d="M 176.128484 242.652169 C 177.795303 240.512511 176.000267 239.442682 175.145488 238.149972 C 174.162493 236.65667 172.410196 235.609129 172.431566 233.536336 C 173.735103 231.976169 175.658356 231.998457 177.389283 231.463542 C 181.53496 230.193121 182.047827 228.521513 179.269796 225.044569 C 174.974533 219.717714 170.465574 214.524586 169.375731 207.43697 C 167.452479 194.911058 166.084833 182.362857 166.790025 169.680928 C 167.131937 163.507125 169.952707 161.92467 175.765203 163.841446 C 190.702463 168.811693 203.972905 176.59024 215.341463 187.444544 C 218.055386 190.052252 220.192333 190.364285 223.611448 188.581237 C 230.129137 185.193446 236.86052 182.853196 244.660377 184.435651 C 249.938636 185.50548 254.169792 180.980995 259.576268 179.532269 C 261.200348 185.215734 266.542715 185.082006 270.902087 186.686749 C 272.462059 187.26624 274.150247 187.645137 275.539263 188.492085 C 279.962743 191.122081 283.168164 190.052252 286.95056 186.619885 C 295.712043 178.663033 305.349675 171.77601 316.077149 166.560594 C 319.560373 164.866699 323.129074 163.663141 327.039688 163.462548 C 331.591385 163.217379 334.155721 165.513054 334.21983 169.859233 C 334.390786 183.343534 333.728332 196.805546 331.035779 210.044678 C 330.245108 213.878231 327.808988 216.931701 325.501086 220.007459 C 318.919289 228.833547 319.410786 233.358031 327.552555 240.534799 C 328.044053 240.958273 328.450073 241.470899 328.727876 241.760645 C 328.770615 242.228695 328.877462 242.473864 328.791984 242.540728 C 321.398147 250.386139 330.522911 251.768002 333.856549 255.378674 C 335.566106 257.273162 334.882283 258.699601 332.9804 259.836294 C 329.390329 261.953664 328.920201 264.940269 329.860458 268.840686 C 331.591385 276.017455 329.668132 282.347275 324.283026 287.518115 C 322.616207 289.122858 321.013497 290.905906 318.427791 289.457179 C 316.226735 293.758783 314.4317 297.926657 309.922741 299.709705 C 307.871272 298.573012 309.196179 296.433355 307.828533 294.850899 C 305.11461 295.497254 303.298205 297.726064 301.310845 299.575977 C 298.917464 301.827075 297.293384 301.893939 296.24628 297.324879 C 293.211815 305.794357 287.741231 311.143501 282.12106 316.514933 C 279.962743 314.687309 280.133699 312.592227 280.026852 310.720027 C 279.578093 300.757246 279.001117 290.794465 277.911274 280.876261 C 277.441146 276.797538 279.492615 274.234407 283.232272 272.852545 C 286.202629 271.760428 289.237094 270.802039 292.100603 269.487041 C 297.84899 266.834757 301.054411 262.46629 302.101515 256.203334 C 299.87909 256.448503 298.725139 258.186975 297.357492 259.546549 C 291.737322 265.16315 285.32648 267.39196 277.377037 265.230014 C 270.196895 263.268661 267.247908 265.029421 265.431503 272.339918 C 262.589363 283.773714 266.820519 293.647342 273.23136 302.696311 C 278.167708 309.605622 280.903 316.916119 280.411502 325.519325 C 279.962743 333.186432 276.693214 338.60244 269.790875 342.257689 C 258.507794 348.208612 247.288822 349.010983 235.215071 344.419634 C 226.068937 340.942691 221.410393 334.813463 220.876156 325.474749 C 220.662461 322.309839 219.593988 320.370774 217.157868 318.498574 C 214.401206 316.403492 212.200151 313.550616 209.550336 311.299517 C 207.862148 309.873079 206.57998 306.195543 203.289082 309.538758 C 202.605258 310.207401 201.494046 309.026131 200.788853 308.3352 C 199.036557 306.57444 197.326999 304.724528 195.553333 302.963768 C 193.886514 301.29216 192.647085 298.907334 189.377556 300.155467 C 188.608255 300.467501 187.091023 299.130215 186.022549 298.350131 C 176.748199 291.641413 173.88469 282.570156 176.598612 271.270089 C 174.312079 272.495935 173.948798 275.215083 171.085289 275.772286 C 167.79439 269.932803 170.679269 264.004169 171.128028 258.209263 C 164.952251 256.069605 164.5676 254.9552 168.777386 249.851225 C 170.871594 247.288094 173.500039 245.170724 176.128484 242.652169 M 228.975186 299.509112 C 230.663374 295.89844 232.586626 292.37692 233.954272 288.654808 C 236.240806 282.41414 236.625456 275.995167 234.06112 269.687634 C 232.43704 265.6312 229.979551 263.40239 225.192789 265.16315 C 219.48714 267.280519 213.952447 266.121538 208.973361 263.023492 C 205.233703 260.70553 201.878696 257.718924 197.989453 254.776895 C 199.378468 262.421714 202.840323 267.770858 210.148682 270.155684 C 212.499323 270.958056 214.743118 272.072461 217.136499 272.763392 C 221.410393 273.989238 222.692561 276.752962 222.414758 281.009989 C 221.688196 292.911835 221.239437 304.858257 220.683831 316.78239 C 222.32928 310.720027 225.55607 305.460035 228.975186 299.509112 M 307.486622 198.254273 C 306.866907 201.084862 308.234553 204.361212 305.563369 206.701463 C 304.003398 208.083325 301.695495 209.08629 303.234097 211.872302 C 304.601743 214.390858 306.973754 213.521622 309.003854 213.65535 C 312.209275 213.922807 313.876093 212.006031 314.880459 209.286883 C 316.654125 204.472653 318.47053 199.658423 320.07324 194.777329 C 321.761428 189.673354 323.641942 184.591667 323.941114 178.350999 C 316.269474 183.477262 310.969845 189.60649 307.486622 198.254273 M 180.551964 181.1593 C 179.761294 180.624386 179.184318 179.576845 177.752564 180.178624 C 177.645716 180.69125 177.325174 181.359893 177.453391 181.917095 C 179.590338 191.857588 182.368369 201.5752 187.261978 210.579592 C 187.646629 211.292812 188.116757 212.095183 188.779211 212.518657 C 191.514503 214.234841 194.741293 214.658315 197.070565 212.563233 C 199.570794 210.312135 197.818497 208.083325 195.446486 206.545446 C 193.886514 205.542482 193.373647 204.138331 193.630081 202.266131 C 194.05747 198.744611 192.476129 195.802582 190.745202 192.905129 C 188.159496 188.603526 184.78312 184.925989 180.551964 181.1593 M 264.469877 314.152394 C 254.041575 312.592227 236.604087 313.372311 232.351562 315.667985 C 245.215983 319.657555 257.759863 319.546115 270.218264 314.509004 C 268.572815 314.419852 266.948735 314.308411 264.469877 314.152394 Z M 264.469877 314.152394 " transform="matrix(0.182796,0,0,0.175262,-37.390864,-26.640909)"/>
</g>
</svg>
