<?xml version="1.0" encoding="UTF-8"?>
<svg version="1.1" xmlns="http://www.w3.org/2000/svg" width="500" height="500">
<path d="M0 0 C165 0 330 0 500 0 C500 165 500 330 500 500 C335 500 170 500 0 500 C0 335 0 170 0 0 Z " fill="#FEFEFE" transform="translate(0,0)"/>
<path d="M0 0 C15.32538264 2.68964668 30.91582578 11.25704683 41.984375 22.0546875 C43.90327346 23.90664764 45.77621783 25.52831117 48 27 C50.57518594 26.92642326 52.46353645 26.29073648 54.72265625 25.06640625 C60.77540618 21.88258981 66.0516029 21.62720762 72.74536133 21.43579102 C77.89994115 21.22892016 81.85327553 20.3585706 86.43359375 17.83984375 C88 17 88 17 90 17 C90.15984375 17.59167969 90.3196875 18.18335938 90.484375 18.79296875 C92.88602201 22.29021246 96.33334921 22.99927003 100.25 24.3125 C101.37728516 24.72725586 101.37728516 24.72725586 102.52734375 25.15039062 C107.0053989 26.70168896 110.35019049 27.5653478 115 26 C117.49947418 24.20688504 117.49947418 24.20688504 119.75 21.875 C126.64622814 15.37899938 134.15640677 10.38414222 142.3125 5.625 C143.19276855 5.10570923 143.19276855 5.10570923 144.09082031 4.57592773 C149.65167167 1.40725872 154.60774523 0.40812456 161 1 C162.98895204 3.02110599 163.90061649 4.39621843 164.36328125 7.20703125 C163.60243172 46.24446461 163.60243172 46.24446461 155.3125 57.125 C152.0500963 61.41727267 151.09524427 64.42480919 151.5 69.8046875 C152.22844011 73.00299487 153.63714546 74.77216572 156 77 C156.5775 77.598125 157.155 78.19625 157.75 78.8125 C158.36875 79.4003125 158.36875 79.4003125 159 80 C157.68 81.65 156.36 83.3 155 85 C158.45064494 88.54893773 158.45064494 88.54893773 162.3125 91.625 C162.869375 92.07875 163.42625 92.5325 164 93 C164 93.99 164 94.98 164 96 C163.34128906 96.40734375 162.68257812 96.8146875 162.00390625 97.234375 C159.62028899 98.92453631 159.62028899 98.92453631 159.71484375 102.328125 C159.78832031 103.62234375 159.86179687 104.9165625 159.9375 106.25 C160.11310466 111.99439047 160.22462285 116.11105568 157 121 C154.79383442 123.18655522 152.48628539 125.14039476 150 127 C149.34 126.67 148.68 126.34 148 126 C147.608125 126.886875 147.21625 127.77375 146.8125 128.6875 C144.92741674 132.13265217 142.91415333 134.39259966 140 137 C139.67 137 139.34 137 139 137 C139 134.69 139 132.38 139 130 C135.7 132.64 132.4 135.28 129 138 C127 137 127 137 126 134 C125.72027344 134.64066406 125.44054687 135.28132812 125.15234375 135.94140625 C122.59553854 141.45785735 119.97152551 145.53879432 115.453125 149.625 C113.87841262 150.95792151 113.87841262 150.95792151 113 153 C112.34 153 111.68 153 111 153 C109.76803538 142.66029694 108.77860487 132.35575002 108.625 121.9375 C108.59921875 121.08768555 108.5734375 120.23787109 108.546875 119.36230469 C108.52792081 113.54573694 108.52792081 113.54573694 110.65234375 111.08984375 C113.38258159 109.82239557 116.11911695 108.68411494 118.9375 107.625 C125.07874815 105.12217989 128.45052489 102.67150881 131.8125 96.875 C133.19088008 94.05630125 133.19088008 94.05630125 133 91 C132.5875 91.45890625 132.175 91.9178125 131.75 92.390625 C131.1725 93.00421875 130.595 93.6178125 130 94.25 C129.443125 94.85328125 128.88625 95.4565625 128.3125 96.078125 C121.88791704 101.41747435 116.22208675 102.57837827 108 102.25 C107.12988281 102.23195313 106.25976562 102.21390625 105.36328125 102.1953125 C103.24170093 102.14868436 101.12069665 102.07696077 99 102 C94.49864596 109.12489772 93.73830941 114.54921333 95 123 C97.48847057 131.42282328 101.7427691 138.99824176 106.77734375 146.140625 C110.84125244 152.32088231 110.61606293 159.87553035 110 167 C107.9064497 173.65010096 103.15687232 177.35462605 97.14453125 180.48828125 C86.52680162 185.07938237 76.86089189 185.71542524 65.9375 181.75 C60.9532837 179.71357367 56.55104528 177.49322751 53.63671875 172.80859375 C50.21233817 164.25468836 49.5395868 156.98112833 53 148.3125 C55.60194988 142.60765013 58.43938603 137.00021747 61.3203125 131.4309082 C64.25855897 125.71029607 65.18131622 121.54610082 65.3125 115.125 C65.34988281 113.93132812 65.38726562 112.73765625 65.42578125 111.5078125 C64.8980805 107.16033289 64.08901728 105.12721224 61 102 C58.0425943 101.3940589 55.2410382 101.67682851 52.25 101.9375 C41.47245408 102.41022753 41.47245408 102.41022753 36.61328125 98.51171875 C36.08089844 98.01285156 35.54851562 97.51398438 35 97 C34.33355469 96.44957031 33.66710937 95.89914062 32.98046875 95.33203125 C31.28381866 93.92317585 29.63129454 92.48345848 28 91 C29.68043041 98.9572383 29.68043041 98.9572383 34.9140625 104.9140625 C38.84340339 106.95967442 42.99730592 108.42371338 47.171875 109.88671875 C50 111 50 111 52 113 C52.15112305 115.22045898 52.15112305 115.22045898 52.01171875 117.99609375 C51.94198853 119.53438843 51.94198853 119.53438843 51.87084961 121.10375977 C51.81034424 122.20389404 51.74983887 123.30402832 51.6875 124.4375 C51.63408447 125.55374756 51.58066895 126.66999512 51.52563477 127.82006836 C51.36074484 131.21399211 51.1815755 134.60693259 51 138 C50.90047427 139.96090878 50.80147654 141.92184447 50.703125 143.8828125 C50.48088524 148.25593043 50.24491003 152.62809541 50 157 C49.31055298 156.40687012 49.31055298 156.40687012 48.60717773 155.80175781 C46.0137744 153.57407776 43.42189535 151.34823108 40.78515625 149.171875 C40.21667969 148.70265625 39.64820313 148.2334375 39.0625 147.75 C38.47597656 147.27046875 37.88945312 146.7909375 37.28515625 146.296875 C36 145 36 145 36 143 C35.34 143 34.68 143 34 143 C34 143.99 34 144.98 34 146 C30.54798361 144.52278578 28.35038064 142.56205999 25.75 139.875 C25.04359375 139.15054688 24.3371875 138.42609375 23.609375 137.6796875 C22.81273437 136.84824219 22.81273437 136.84824219 22 136 C21.01 136.33 20.02 136.66 19 137 C13.13181543 134.28688538 9.39017698 129.5767195 6.76953125 123.80078125 C5.14306086 117.88108951 6.08192277 111.75423169 8 106 C7.34 106 6.68 106 6 106 C5.731875 106.598125 5.46375 107.19625 5.1875 107.8125 C4.01506533 109.97224808 2.80630718 111.35790256 1 113 C-0.69455034 111.30544966 -0.17173578 109.1891874 -0.1875 106.875 C-0.15688893 102.17926157 0.43240953 98.40884818 2 94 C0.02 94 -1.96 94 -4 94 C-3.40952677 90.43322251 -2.04264332 88.58466641 0.375 85.9375 C0.98085937 85.26589844 1.58671875 84.59429687 2.2109375 83.90234375 C3.77830268 82.23573492 5.3699358 80.60506322 7 79 C5.50163895 75.88801935 3.80066242 72.9465385 2 70 C4.97 69.01 7.94 68.02 11 67 C10.77381119 63.26788471 9.62730434 61.36698285 7.1875 58.6875 C-4.01995717 46.16309942 -2.98785154 27.78604981 -3.25 11.875 C-3.27143066 11.15223877 -3.29286133 10.42947754 -3.31494141 9.68481445 C-3.34168675 5.49025352 -2.98969357 3.03689926 0 0 Z " fill="#DBC48B" transform="translate(169,162)"/>
<path d="M0 0 C-0.48655483 7.99827849 -2.75752191 14.91762409 -5.4375 22.4375 C-5.84548828 23.62021484 -6.25347656 24.80292969 -6.67382812 26.02148438 C-9.72928379 34.72928379 -9.72928379 34.72928379 -12 37 C-14.3828125 37.1953125 -14.3828125 37.1953125 -17.125 37.125 C-18.03507812 37.10695312 -18.94515625 37.08890625 -19.8828125 37.0703125 C-20.58148438 37.04710937 -21.28015625 37.02390625 -22 37 C-22.66 35.35 -23.32 33.7 -24 32 C-23.195625 31.525625 -22.39125 31.05125 -21.5625 30.5625 C-18.75359713 27.75359713 -18.71693163 27.49312058 -18.5625 23.8125 C-17.94662372 14.16377169 -9.82327006 7.11364997 -3 1 C-1 0 -1 0 0 0 Z " fill="#FEFDFC" transform="translate(324,176)"/>
<path d="M0 0 C8.04928273 4.90809922 14.42267976 11.12520127 18 20 C18.38671875 22.24609375 18.38671875 22.24609375 18.5625 24.375 C18.62049418 28.05173704 18.62049418 28.05173704 21.0625 30 C21.701875 30.33 22.34125 30.66 23 31 C22.67 32.98 22.34 34.96 22 37 C18.7 37 15.4 37 12 37 C8.61017818 30.8185602 6.01049257 24.5977569 3.75 17.9375 C3.49202637 17.1945166 3.23405273 16.4515332 2.96826172 15.68603516 C1.23701915 10.44623313 0.4578848 5.50006863 0 0 Z " fill="#FEFDFB" transform="translate(175,176)"/>
<path d="M0 0 C1.13545761 0.00068733 1.13545761 0.00068733 2.29385376 0.00138855 C3.89253306 0.00440407 5.49120961 0.01226943 7.08984375 0.0246582 C9.52354476 0.04285274 11.95686321 0.04516811 14.390625 0.04492188 C15.94791992 0.0498402 17.50521229 0.05566988 19.0625 0.0625 C19.78456635 0.06361282 20.50663269 0.06472565 21.25057983 0.06587219 C25.32096666 0.10365207 29.16963385 0.44636561 33.1640625 1.23046875 C33.1640625 1.89046875 33.1640625 2.55046875 33.1640625 3.23046875 C18.63885047 6.60562175 4.85691757 7.30969582 -9.8359375 4.23046875 C-10.4959375 3.57046875 -11.1559375 2.91046875 -11.8359375 2.23046875 C-8.07800848 -0.22196569 -4.32807261 -0.04282992 0 0 Z " fill="#FCFBF7" transform="translate(238.8359375,311.76953125)"/>
<path d="M0 0 C0.66 0 1.32 0 2 0 C1.67 2.97 1.34 5.94 1 9 C0.34 7.68 -0.32 6.36 -1 5 C-1.99 5.495 -1.99 5.495 -3 6 C-2 4 -1 2 0 0 Z " fill="#F4EDDC" transform="translate(175,268)"/>
</svg>
