<?xml version="1.0" encoding="UTF-8" standalone="no" ?>
<!DOCTYPE svg PUBLIC "-//W3C//DTD SVG 1.1//EN" "http://www.w3.org/Graphics/SVG/1.1/DTD/svg11.dtd">
<svg xmlns="http://www.w3.org/2000/svg" xmlns:xlink="http://www.w3.org/1999/xlink" version="1.1" width="1080" height="1080" viewBox="0 0 1080 1080" xml:space="preserve">
<desc>Created with Fabric.js 5.2.4</desc>
<defs>
</defs>
<g transform="matrix(1 0 0 1 540 540)" id="9871bfba-468a-4c10-9c81-ef5f91af86a6"  >
<rect style="stroke: none; stroke-width: 1; stroke-dasharray: none; stroke-linecap: butt; stroke-dashoffset: 0; stroke-linejoin: miter; stroke-miterlimit: 4; fill: rgb(255,255,255); fill-rule: nonzero; opacity: 1; visibility: hidden;" vector-effect="non-scaling-stroke"  x="-540" y="-540" rx="0" ry="0" width="1080" height="1080" />
</g>
<g transform="matrix(1 0 0 1 540 540)" id="2944b00e-dda0-4ed9-8cef-6eb9a9c9ba4e"  >
</g>
<g transform="matrix(1 0 0 1 540.5 540.5)" id="9c62b352-8d79-4680-b138-22b6da7a257f"  >
<path style="stroke: rgb(0,0,0); stroke-width: 1; stroke-dasharray: none; stroke-linecap: butt; stroke-dashoffset: 0; stroke-linejoin: miter; stroke-miterlimit: 4; fill: rgb(184,137,23); fill-rule: nonzero; opacity: 1;" vector-effect="non-scaling-stroke"  transform=" translate(-250.41, -255.23)" d="M 176.125336 242.662338 C 177.787048 240.509262 175.993896 239.445114 175.138779 238.150986 C 174.154816 236.66185 172.415604 235.620056 172.430618 233.526108 C 173.733902 231.97493 175.654572 231.998352 177.377838 231.468414 C 181.530991 230.191208 182.043701 228.518402 179.26329 225.056152 C 174.978699 219.720917 170.468506 214.532898 169.374268 207.426193 C 167.448578 194.91922 166.095367 182.354523 166.787659 169.68634 C 167.124908 163.514999 169.95932 161.928238 175.765945 163.856186 C 190.700668 168.81485 203.972641 176.58551 215.339096 187.459564 C 218.052811 190.05571 220.19252 190.365402 223.612473 188.585785 C 230.119247 185.199905 236.855682 182.845825 244.66008 184.434219 C 249.929062 185.506592 254.17897 180.985199 259.574982 179.521301 C 261.187469 185.208191 266.551178 185.085617 270.899719 186.684143 C 272.46167 187.258301 274.138153 187.653366 275.544159 188.494766 C 279.954193 191.133835 283.165863 190.05484 286.950348 186.621277 C 295.719635 178.665146 305.354034 171.781555 316.078552 166.564667 C 319.558014 164.872116 323.136078 163.667099 327.037018 163.459824 C 331.594879 163.217651 334.155518 165.513229 334.216248 169.856522 C 334.404846 183.343201 333.722168 196.794434 331.030396 210.055161 C 330.25235 213.888153 327.819122 216.936081 325.507416 220.021881 C 318.913788 228.823563 319.41333 233.371109 327.564697 240.537903 C 328.044983 240.960175 328.448608 241.469666 328.725159 241.764847 C 328.774658 242.229996 328.871277 242.46759 328.798126 242.545258 C 321.399261 250.399765 330.525635 251.757401 333.845428 255.388016 C 335.567291 257.271088 334.870514 258.68634 332.975403 259.823029 C 329.395721 261.970154 328.92392 264.938812 329.862671 268.841339 C 331.590179 276.022858 329.656952 282.34491 324.277771 287.514221 C 322.611481 289.115509 321.001282 290.906281 318.425201 289.451721 C 316.230988 293.74649 314.434875 297.924408 309.932678 299.714478 C 307.867065 298.579468 309.201721 296.425354 307.833557 294.847687 C 305.1138 295.491821 303.295074 297.737366 301.315369 299.580139 C 298.905975 301.822845 297.289398 301.882111 296.236298 297.312439 C 293.209595 305.784088 287.738708 311.128906 282.111145 316.520386 C 279.964478 314.703278 280.124451 312.595825 280.038269 310.715881 C 279.581146 300.744232 278.99173 290.78717 277.896088 280.86026 C 277.448669 276.806213 279.503998 274.234222 283.239899 272.859833 C 286.20697 271.76825 289.235443 270.801819 292.10083 269.484375 C 297.845551 266.843048 301.057861 262.452637 302.105896 256.205353 C 299.888855 256.463898 298.718964 258.182281 297.36557 259.53653 C 291.743896 265.161835 285.319824 267.384766 277.373596 265.223206 C 270.185944 263.268005 267.259705 265.024139 265.433502 272.331512 C 262.572906 283.777802 266.81424 293.654144 273.249756 302.695709 C 278.173676 309.613586 280.903015 316.931854 280.404907 325.518463 C 279.960052 333.186707 276.687714 338.61322 269.788208 342.256287 C 258.497955 348.217743 247.284119 349.001526 235.202362 344.409149 C 226.07222 340.93866 221.417816 334.81485 220.85878 325.4823 C 220.667816 322.294373 219.600754 320.374603 217.156357 318.501648 C 214.399658 316.389404 212.214493 313.545715 209.548126 311.295837 C 207.860153 309.87149 206.574951 306.213104 203.281982 309.531281 C 202.605164 310.213318 201.488403 309.035706 200.795715 308.340088 C 199.032608 306.56955 197.33606 304.732544 195.566483 302.968689 C 193.884399 301.292023 192.637039 298.901398 189.388702 300.162811 C 188.610474 300.465027 187.076569 299.125916 186.020905 298.361267 C 176.752182 291.647461 173.899261 282.565247 176.609558 271.276459 C 174.304092 272.491516 173.94577 275.218597 171.086426 275.760803 C 167.801193 269.931732 170.684525 263.994598 171.132645 258.209167 C 164.951324 256.073853 164.560455 254.955978 168.777222 249.844879 C 170.880188 247.295883 173.504211 245.176743 176.125336 242.662338 M 228.9832 299.517273 C 230.658081 295.901947 232.588135 292.379852 233.950562 288.650421 C 236.233078 282.402405 236.630646 276.007385 234.074997 269.676544 C 232.440674 265.627991 229.973434 263.393158 225.198792 265.169495 C 219.48967 267.293518 213.946899 266.121185 208.967682 263.027405 C 205.222961 260.700653 201.879333 257.728394 198.00148 254.772339 C 199.365784 262.418762 202.843246 267.774231 210.134674 270.168488 C 212.496979 270.944214 214.748642 272.076508 217.132248 272.763611 C 221.395401 273.992493 222.679916 276.739868 222.419998 281.005981 C 221.694092 292.920746 221.239777 304.85202 220.678253 316.776794 C 222.330612 310.71933 225.550949 305.474609 228.9832 299.517273 M 307.484863 198.254562 C 306.863525 201.076126 308.247375 204.362183 305.566864 206.703018 C 303.988556 208.081299 301.703461 209.08316 303.231567 211.881607 C 304.593994 214.376602 306.956238 213.509003 309.004669 213.667206 C 312.207794 213.914536 313.882446 212.007751 314.875397 209.296829 C 316.64328 204.470093 318.455322 199.656052 320.068176 194.776947 C 321.756256 189.670349 323.648621 184.585617 323.949554 178.3535 C 316.269623 183.475647 310.971039 189.598801 307.484863 198.254562 M 180.535675 181.148392 C 179.745895 180.636734 179.18103 179.575684 177.750565 180.165771 C 177.651367 180.682175 177.320175 181.350571 177.443665 181.920425 C 179.595917 191.851852 182.36348 201.580765 187.259506 210.571518 C 187.650909 211.290298 188.126572 212.098099 188.784683 212.513184 C 191.513565 214.23439 194.744186 214.652863 197.073761 212.554077 C 199.57103 210.304245 197.825653 208.085876 195.452637 206.547165 C 193.88826 205.532791 193.383575 204.121414 193.61824 202.266235 C 194.063049 198.749603 192.484512 195.792847 190.751877 192.916183 C 188.150009 188.596344 184.788513 184.924393 180.535675 181.148392 M 264.453735 314.150421 C 254.034302 312.591858 236.593903 313.359619 232.350906 315.680511 C 245.221085 319.655975 257.763031 319.535858 270.210602 314.522583 C 268.573212 314.416107 266.935791 314.309631 264.453735 314.150421 z" stroke-linecap="round" />
</g>
</svg>